<?xml version="1.0" standalone="no"?><!DOCTYPE svg PUBLIC "-//W3C//DTD SVG 1.1//EN" "http://www.w3.org/Graphics/SVG/1.1/DTD/svg11.dtd"><svg t="1648696390519" class="icon" viewBox="0 0 1024 1024" version="1.1" xmlns="http://www.w3.org/2000/svg" p-id="3197" xmlns:xlink="http://www.w3.org/1999/xlink" width="200" height="200"><defs><style type="text/css"></style></defs><path d="M156.392727 656.523636a43.52 43.52 0 0 1 61.207273 7.214546l113.105455 144.058182V90.298182a43.752727 43.752727 0 1 1 87.272727 0v843.403636a43.752727 43.752727 0 0 1-29.323637 41.425455 42.123636 42.123636 0 0 1-14.196363 2.327272 43.287273 43.287273 0 0 1-34.210909-16.756363L148.945455 717.730909a43.52 43.52 0 0 1 7.447272-61.207273zM634.414545 48.872727a43.752727 43.752727 0 0 1 48.64 14.429091l191.069091 242.967273a43.752727 43.752727 0 1 1-69.818181 53.992727l-111.941819-144.058182v717.498182a43.752727 43.752727 0 1 1-87.272727 0V90.298182a44.218182 44.218182 0 0 1 29.323636-41.425455z" p-id="3198" fill="#8a8a8a"></path></svg>